<?xml version="1.0" encoding="UTF-8"?>
<svg width="24px" height="24px" viewBox="0 0 24 24" version="1.1" xmlns="http://www.w3.org/2000/svg" xmlns:xlink="http://www.w3.org/1999/xlink">
    <g stroke="none" stroke-width="1" fill="none" fill-rule="evenodd">
        <path d="M12,2 C16.418278,2 20,5.581722 20,10 C20,12.8273 18.3163444,16.0673 15.0089805,19.7221 C13.3502946,21.5417 12.4414783,22.4513 12,22.8836 C11.5585217,22.4513 10.6497054,21.5417 8.99101955,19.7221 C5.68365556,16.0673 4,12.8273 4,10 C4,5.581722 7.581722,2 12,2 Z M12,4 C8.6862915,4 6,6.6862915 6,10 C6,12.1727 7.43634443,15.0327 10.5089805,18.4029 C11.3414783,19.3083 11.8,19.7513 12,19.9386 C12.2,19.7513 12.6585217,19.3083 13.4910195,18.4029 C16.5636556,15.0327 18,12.1727 18,10 C18,6.6862915 15.3137085,4 12,4 Z M12,7 C13.6568542,7 15,8.34314575 15,10 C15,11.6568542 13.6568542,13 12,13 C10.3431458,13 9,11.6568542 9,10 C9,8.34314575 10.3431458,7 12,7 Z M12,9 C11.4477153,9 11,9.44771525 11,10 C11,10.5522847 11.4477153,11 12,11 C12.5522847,11 13,10.5522847 13,10 C13,9.44771525 12.5522847,9 12,9 Z" fill="#0066FF" fill-rule="nonzero"></path>
    </g>
</svg>
