<?xml version="1.0" encoding="UTF-8"?>
<svg width="24px" height="24px" viewBox="0 0 24 24" version="1.1" xmlns="http://www.w3.org/2000/svg" xmlns:xlink="http://www.w3.org/1999/xlink">
    <g stroke="none" stroke-width="1" fill="none" fill-rule="evenodd">
        <path d="M12,2 C12.5522847,2 13,2.44771525 13,3 L13,12 C13,12.5522847 12.5522847,13 12,13 C11.4477153,13 11,12.5522847 11,12 L11,3 C11,2.44771525 11.4477153,2 12,2 Z M7.05025253,5.63603897 C7.44077682,5.24551468 8.07394316,5.24551468 8.46446745,5.63603897 C8.85499174,6.02656326 8.85499174,6.6597296 8.46446745,7.05025389 C6.51183842,9.00288292 6.51183842,12.1587222 8.46446745,14.1113512 C10.4170965,16.0639802 13.5729357,16.0639802 15.5255647,14.1113512 C17.4781938,12.1587222 17.4781938,9.00288292 15.5255647,7.05025389 C15.1350404,6.6597296 15.1350404,6.02656326 15.5255647,5.63603897 C15.916089,5.24551468 16.5492554,5.24551468 16.9397797,5.63603897 C19.6834773,8.37973659 19.6834773,12.7818685 16.9397797,15.5255661 C14.1960821,18.2692637 9.79395016,18.2692637 7.05025253,15.5255661 C4.30655491,12.7818685 4.30655491,8.37973659 7.05025253,5.63603897 Z" fill="#0066FF" fill-rule="nonzero"></path>
    </g>
</svg>
