<?xml version="1.0" encoding="UTF-8"?>
<svg width="24px" height="24px" viewBox="0 0 24 24" version="1.1" xmlns="http://www.w3.org/2000/svg" xmlns:xlink="http://www.w3.org/1999/xlink">
    <g stroke="none" stroke-width="1" fill="none" fill-rule="evenodd">
        <path d="M12,2 C17.5228475,2 22,6.4771525 22,12 C22,17.5228475 17.5228475,22 12,22 C6.4771525,22 2,17.5228475 2,12 C2,6.4771525 6.4771525,2 12,2 Z M12,4 C7.581722,4 4,7.581722 4,12 C4,14.5012318 5.12611829,16.7484244 6.90438313,18.1876363 C7.83803896,16.8811339 9.33591301,16 11,16 L13,16 C14.6640869,16 16.161961,16.8811339 17.0956169,18.1876363 C18.8738817,16.7484244 20,14.5012318 20,12 C20,7.581722 16.418278,4 12,4 Z M12,5 C14.2091391,5 16,6.79086089 16,9 C16,11.2091391 14.2091391,13 12,13 C9.79086089,13 8,11.2091391 8,9 C8,6.79086089 9.79086089,5 12,5 Z M12,7 C10.8954305,7 10,7.8954305 10,9 C10,10.1045695 10.8954305,11 12,11 C13.1045695,11 14,10.1045695 14,9 C14,7.8954305 13.1045695,7 12,7 Z" fill="#0066FF" fill-rule="nonzero"></path>
    </g>
</svg>
