<?xml version="1.0" encoding="UTF-8"?>
<svg width="24px" height="24px" viewBox="0 0 24 24" version="1.1" xmlns="http://www.w3.org/2000/svg" xmlns:xlink="http://www.w3.org/1999/xlink">
    <g stroke="none" stroke-width="1" fill="none" fill-rule="evenodd">
        <path d="M3,3 L21,3 C21.5522847,3 22,3.44771525 22,4 L22,20 C22,20.5522847 21.5522847,21 21,21 L3,21 C2.44771525,21 2,20.5522847 2,20 L2,4 C2,3.44771525 2.44771525,3 3,3 Z M4,5 L4,19 L20,19 L20,5 L4,5 Z M7,14 C7.55228475,14 8,14.4477153 8,15 L8,16 C8,16.5522847 7.55228475,17 7,17 C6.44771525,17 6,16.5522847 6,16 L6,15 C6,14.4477153 6.44771525,14 7,14 Z M12,10 C12.5522847,10 13,10.4477153 13,11 L13,16 C13,16.5522847 12.5522847,17 12,17 C11.4477153,17 11,16.5522847 11,16 L11,11 C11,10.4477153 11.4477153,10 12,10 Z M17,7 C17.5522847,7 18,7.44771525 18,8 L18,16 C18,16.5522847 17.5522847,17 17,17 C16.4477153,17 16,16.5522847 16,16 L16,8 C16,7.44771525 16.4477153,7 17,7 Z" fill="#0066FF" fill-rule="nonzero"></path>
    </g>
</svg>
